<svg width="64" height="64" fill="none" xmlns="http://www.w3.org/2000/svg"><path d="M63.3 32c0 17.3-14 31.3-31.3 31.3S.7 49.3.7 32 14.7.7 32 .7s31.3 14 31.3 31.3zM32 2.6C15.7 2.6 2.6 15.7 2.6 32c0 16.3 13.2 29.4 29.4 29.4 16.3 0 29.4-13.2 29.4-29.4C61.4 15.7 48.3 2.6 32 2.6z" fill="url(#paint0_linear)"/><path d="M32 2.6C15.7 2.6 2.6 15.7 2.6 32c0 16.3 13.2 29.4 29.4 29.4 16.3 0 29.4-13.2 29.4-29.4C61.4 15.7 48.3 2.6 32 2.6zm0 56.9C16.8 59.5 4.5 47.2 4.5 32S16.8 4.5 32 4.5 59.5 16.8 59.5 32 47.2 59.5 32 59.5z" fill="url(#paint1_linear)"/><path opacity=".4" d="M32 63.3c17.3 0 31.3-14 31.3-31.3S49.3.7 32 .7.7 14.7.7 32s14 31.3 31.3 31.3zM32 0c17.6 0 32 14.4 32 32S49.6 64 32 64 0 49.6 0 32 14.4 0 32 0z" fill="url(#paint2_linear)"/><path d="M2.2 32.1C2.2 15.7 15.5 2.2 32 2.2s29.8 13.4 29.8 29.9c0 16.4-13.3 29.7-29.8 29.7S2.2 48.5 2.2 32.1zm9.3-20.6c-5.3 5.3-8.6 12.6-8.6 20.6 0 8 3.3 15.3 8.5 20.5 5.3 5.2 12.6 8.5 20.6 8.5 8 0 15.3-3.2 20.5-8.5 5.3-5.2 8.5-12.5 8.5-20.5s-3.3-15.3-8.5-20.6C47.3 6.2 40 2.9 32 2.9s-15.3 3.3-20.5 8.6z" fill="#fff"/><path opacity=".4" d="M32 59.6c-7.4 0-14.3-2.9-19.5-8.1C7.3 46.3 4.4 39.4 4.4 32s2.9-14.3 8.1-19.5C17.7 7.3 24.6 4.4 32 4.4s14.3 2.9 19.5 8.1c5.2 5.2 8.1 12.1 8.1 19.5s-2.9 14.3-8.1 19.5c-5.2 5.2-12.1 8.1-19.5 8.1zm0-.8c7.1 0 13.9-2.8 18.9-7.8 5.1-5.1 7.8-11.8 7.8-18.9 0-7.1-2.8-13.9-7.8-18.9C45.8 8.1 39.1 5.4 32 5.4c-7.1 0-13.9 2.8-18.9 7.8C8 18.1 5.2 24.9 5.2 32c0 7.1 2.8 13.9 7.8 18.9 5.1 5.1 11.9 7.9 19 7.9z" fill="url(#paint3_linear)"/><path d="M56.3 45c-.5-.4-19.8-15.7-19.8-15.7L32 3.6c-.3.1-.7.4-.9.8l-3.2 25L8 44.7s-.4.5-.6.8c-.1.2-.1.5-.1.8l24.6-10.1 24.6 10.1c.2-.5 0-1-.2-1.3z" fill="#fff"/><path d="M32.2 32.8l-.2 4.6 22.6 9.1c.8.4 1.4.2 2-.2L32.5 32.7c-.1-.1-.3 0-.3.1z" fill="#565F64"/><path d="M32.2 32.8s1.3 2.3 2.8 3.9c2.1 2.3 4.9 3.9 4.9 3.9l14.7 5.9c.8.4 1.4.2 2-.2L32.5 32.7c-.1-.1-.3 0-.3.1z" fill="url(#paint4_linear)"/><path d="M56.5 45.4c0-.1-.1-.2-.2-.4L35.7 29.9l-2.8 1.8s.2.1.3 0c.3-.1.9-.2 1.5 0 .5.2 21.8 13.8 21.8 13.8v-.1z" fill="#A4AAAE" fill-opacity=".6"/><path d="M55.8 44.5L36.6 29.3l-.9.6 20.6 15.2c-.1-.2-.3-.4-.5-.6z" fill="#333E46"/><path d="M32.5 31.3l-.1.1s0 .2.2.1c.1-.1 3-1.6 4-2.2l-3.5-24c-.1-.9-.5-1.3-1.2-1.6l.4 27.8.2-.2z" fill="#565F64"/><path d="M30.8 5.3v1.3l-2.2 22.1c0 .3.1.6.4.8l1.3 1 .9-24.4.1-1.9c-.3.2-.4.6-.5 1.1zm-1.2 25.6l-1.2-1L8.1 44.6s-.6.4-.7.8l.7-.4 21.3-13.4c.4-.2.5-.4.2-.7z" fill="#A4AAAE" fill-opacity=".6"/><path d="M31.7 32.8c0-.1-.1-.2-.2-.1L7.3 46.4c.6.4 1.2.5 2 .2l22.6-9.1-.2-4.7z" fill="#565F64"/><path d="M32.4 31.4l.1-.1-.1.1s0 .1.1.1h.1c.1-.1 3-1.6 4-2.2l-.4-2.9-3.1-21.1c0-.4-.1-.7-.3-.9 0 0 1.5 20.2 1.5 22.4 0 2.9-1.9 4.6-1.9 4.6z" fill="url(#paint5_linear)"/><path d="M31.7 32.8c0-.1-.1-.2-.2-.1L7.3 46.4c.6.4 1.2.5 2 .2l22.6-9.1-.2-4.7z" fill="url(#paint6_linear)" fill-opacity=".8"/><path opacity=".8" d="M9.3 46.5l22.6-9.1-.2-4.4c-.4 1.2-1.1 2.5-3 3.5-1.4.8-14.8 7.4-19.6 9.7-.3.2-.7.3-.9.4.4.2.7.1 1.1-.1z" fill="url(#paint7_linear)"/><path d="M32.5 31.3l-.1.1s0 .2.2.1c.1-.1 3-1.6 4-2.2l-3.5-24c-.1-.9-.5-1.3-1.2-1.6l.4 27.8.2-.2z" fill="url(#paint8_linear)"/><path d="M32.5 31.3l-.1.1s0 .2.2.1c.1-.1 3-1.6 4-2.2l-3.5-24c-.1-.9-.5-1.3-1.2-1.6l.4 27.8.2-.2z" fill="url(#paint9_linear)"/><path d="M5.1 44.4C4.4 42.8.4 35 4.8 20H3.1c-.9 3-1.6 4.8-2 7.5 0 0-.2 1-.3 2.1C.7 30.7.7 31.3.7 32c0 6 1.5 9.5 1.5 9.5 1.6 5 4.4 9.5 8.2 12.9 3.3 2.9 8.4 5.1 12.6 5.9-.7-.1-12.7-5.2-17.9-15.9z" fill="url(#paint10_linear)"/><path d="M32.4 32.6h-.9c.1 0 .2 0 .2.1l.2 4.6h.1l.2-4.6c0-.1.1-.2.2-.1z" fill="url(#paint11_linear)"/><path d="M42 2.3c10.5 4 20.4 15 20.4 28.9C62.4 48 49 61.7 32 61.7v1.6c17 0 31.3-14 31.3-31.3 0-13.8-8.8-25.4-21.3-29.7z" fill="url(#paint12_linear)"/><path d="M58.8 20.2C51.8 4.1 36 3.2 35.1 3.1H35c12.1 2.2 19.8 10.1 22.5 18.4v.1c1.2 3.2 1.8 6.6 1.9 10.3.1 3.5-.7 7.4-2.2 11-.1.5-.2 1.1-.3 1.1h1.6c4.8-9 2.7-18.1.3-23.8z" fill="url(#paint13_linear)"/><path d="M2.2 32.1C2.2 15.7 15.5 2.2 32 2.2s29.8 13.4 29.8 29.9c0 16.4-13.3 29.7-29.8 29.7S2.2 48.5 2.2 32.1zm9.3-20.6c-5.3 5.3-8.6 12.6-8.6 20.6 0 8 3.3 15.3 8.5 20.5 5.3 5.2 12.6 8.5 20.6 8.5 8 0 15.3-3.2 20.5-8.5 5.3-5.2 8.5-12.5 8.5-20.5s-3.3-15.3-8.5-20.6C47.3 6.2 40 2.9 32 2.9s-15.3 3.3-20.5 8.6z" fill="#FBFBFB"/><path d="M7.9 44.8l20.4-14.7c1.1.6 2.9 1.4 3.1 1.4.2.1.2-.1.2-.1l-2.5-2.1c-.3-.2-.4-.5-.4-.8l2.4-24.1c-.1.1-.1.3-.2.4-.1.2-.1.3-.1.5l-3.5 24.1L8.1 44.5c-.1.1-.2.2-.2.3z" fill="#333F47"/><defs><linearGradient id="paint0_linear" x1="8" y1="11.9" x2="56" y2="52.1" gradientUnits="userSpaceOnUse"><stop stop-color="#fff"/><stop offset=".1" stop-color="#CDD0D0"/><stop offset=".2" stop-color="#A5ACAF"/><stop offset=".3" stop-color="#98A0A4"/><stop offset=".4" stop-color="#828A8F"/><stop offset=".5" stop-color="#667075"/><stop offset=".6" stop-color="#535C63"/><stop offset=".7" stop-color="#475158"/><stop offset=".8" stop-color="#434D54"/><stop offset="1" stop-color="#475157"/></linearGradient><linearGradient id="paint1_linear" x1="9.5" y1="13.1" x2="54.5" y2="50.9" gradientUnits="userSpaceOnUse"><stop stop-color="#0B1F2A"/><stop offset=".2" stop-color="#333F47"/><stop offset=".5" stop-color="#81898D"/><stop offset=".7" stop-color="#B3B8B8"/><stop offset=".8" stop-color="#DEE0DD"/><stop offset="1" stop-color="#FBFBFB"/></linearGradient><linearGradient id="paint2_linear" x1="42.973" y1="62.107" x2="21.073" y2="1.907" gradientUnits="userSpaceOnUse"><stop stop-color="#E1E3E1"/><stop offset=".1" stop-color="#C1C5C4"/><stop offset=".3" stop-color="#9BA1A2"/><stop offset=".5" stop-color="#7D8487"/><stop offset=".7" stop-color="#687074" stop-opacity="0"/><stop offset=".8" stop-color="#5B6469" stop-opacity="0"/><stop offset="1" stop-color="#576065" stop-opacity="0"/></linearGradient><linearGradient id="paint3_linear" x1="18.2" y1="8.1" x2="45.8" y2="55.9" gradientUnits="userSpaceOnUse"><stop stop-color="#E1E3E1"/><stop offset=".1" stop-color="#C1C5C4"/><stop offset=".3" stop-color="#9BA1A2"/><stop offset=".5" stop-color="#7D8487"/><stop offset=".7" stop-color="#687074" stop-opacity="0"/><stop offset=".8" stop-color="#5B6469" stop-opacity="0"/><stop offset="1" stop-color="#576065" stop-opacity="0"/></linearGradient><linearGradient id="paint4_linear" x1="44.5" y1="39.4" x2="42.8" y2="42.2" gradientUnits="userSpaceOnUse"><stop stop-color="#27343C"/><stop offset="1" stop-color="#00111E" stop-opacity="0"/></linearGradient><linearGradient id="paint5_linear" x1="39.6" y1="29.1" x2="36.8" y2="24.6" gradientUnits="userSpaceOnUse"><stop offset=".1" stop-color="#02131F"/><stop offset=".9" stop-color="#02131F" stop-opacity="0"/></linearGradient><linearGradient id="paint6_linear" x1="32" y1="36.4" x2="27.8" y2="37.6" gradientUnits="userSpaceOnUse"><stop offset=".2" stop-color="#02131F"/><stop offset=".9" stop-color="#02131F" stop-opacity="0"/></linearGradient><linearGradient id="paint7_linear" x1="20.8" y1="41.9" x2="20.2" y2="40.4" gradientUnits="userSpaceOnUse"><stop stop-color="#02131F"/><stop offset=".1" stop-color="#02131F"/><stop offset="1" stop-color="#02131F" stop-opacity="0"/></linearGradient><linearGradient id="paint8_linear" x1="35.6" y1="17.2" x2="32.2" y2="17.6" gradientUnits="userSpaceOnUse"><stop offset=".3" stop-color="#02131F"/><stop offset=".8" stop-color="#02131F" stop-opacity="0"/></linearGradient><linearGradient id="paint9_linear" x1="35.7" y1="17.1" x2="33.4" y2="17.4" gradientUnits="userSpaceOnUse"><stop offset=".4" stop-color="#27343C"/><stop offset="1" stop-color="#3B474E" stop-opacity="0"/></linearGradient><linearGradient id="paint10_linear" x1="-.4" y1="32.9" x2="27.5" y2="49" gradientUnits="userSpaceOnUse"><stop stop-color="#25323B" stop-opacity="0"/><stop offset=".1" stop-color="#27343C"/></linearGradient><linearGradient id="paint11_linear" x1="32" y1="37.4" x2="32" y2="32.6" gradientUnits="userSpaceOnUse"><stop offset=".3" stop-color="#A5ABAF"/><stop offset="1" stop-color="#A5ABAF" stop-opacity="0"/></linearGradient><linearGradient id="paint12_linear" x1="47.7" y1="2.3" x2="47.7" y2="63.3" gradientUnits="userSpaceOnUse"><stop stop-color="#6B7378"/><stop offset=".2" stop-color="#333F47"/><stop offset=".5" stop-color="#27343C"/><stop offset=".8" stop-color="#333F47"/><stop offset="1" stop-color="#434D54"/></linearGradient><linearGradient id="paint13_linear" x1="57.3" y1="8.1" x2="43.8" y2="27.9" gradientUnits="userSpaceOnUse"><stop offset=".7" stop-color="#49545B"/><stop offset=".8" stop-color="#fff" stop-opacity="0"/></linearGradient></defs></svg>